<svg width="0" height="0" style="position:absolute"><symbol viewBox="0 0 24 24" id="email" xmlns="http://www.w3.org/2000/svg"><path d="M5 3a2 2 0 00-2 2v14a2 2 0 002 2h14a2 2 0 002-2V5a2 2 0 00-2-2H5m1.4 3.5h11.2c.77 0 1.4.62 1.4 1.4v8.2a1.4 1.4 0 01-1.4 1.4H6.4c-.77 0-1.4-.63-1.4-1.4V7.9c0-.78.62-1.4 1.4-1.4M6 8v2l6 4 6-4V8l-6 4-6-4z"/></symbol><symbol viewBox="0 0 24 24" id="facebook" xmlns="http://www.w3.org/2000/svg"><path d="M5 3h14a2 2 0 012 2v14a2 2 0 01-2 2H5a2 2 0 01-2-2V5a2 2 0 012-2m13 2h-2.5A3.5 3.5 0 0012 8.5V11h-2v3h2v7h3v-7h3v-3h-3V9a1 1 0 011-1h2V5z"/></symbol><symbol viewBox="0 0 24 24" id="linkedin" xmlns="http://www.w3.org/2000/svg"><path d="M19 3a2 2 0 012 2v14a2 2 0 01-2 2H5a2 2 0 01-2-2V5a2 2 0 012-2h14m-.5 15.5v-5.3a3.26 3.26 0 00-3.26-3.26c-.85 0-1.84.52-2.32 1.3v-1.11h-2.79v8.37h2.79v-4.93c0-.77.62-1.4 1.39-1.4a1.4 1.4 0 011.4 1.4v4.93h2.79M6.88 8.56a1.68 1.68 0 001.68-1.68c0-.93-.75-1.69-1.68-1.69a1.69 1.69 0 00-1.69 1.69c0 .93.76 1.68 1.69 1.68m1.39 9.94v-8.37H5.5v8.37h2.77z"/></symbol><symbol viewBox="0 0 1125 375" id="livingit" xmlns="http://www.w3.org/2000/svg"><defs><clipPath id="da" clipPathUnits="userSpaceOnUse"><path d="M0 300h900V0H0v300z"/></clipPath></defs><g clip-path="url(#da)" transform="matrix(1.25 0 0 -1.25 0 375)"><path d="M888 300H12c-6.627 0-12-5.373-12-12V12C0 5.373 5.373 0 12 0h876c6.627 0 12 5.373 12 12v276c0 6.627-5.373 12-12 12" fill="#fff" fill-rule="evenodd"/><path d="M720.615 251.48c-56.724 0-102.708-45.936-102.708-102.601 0-56.664 45.984-102.6 102.708-102.6s102.708 45.936 102.708 102.6c0 56.665-45.984 102.6-102.708 102.6" fill="#f29400" fill-rule="evenodd"/><path d="M666.358 89.031h28.565v119.345h-28.565V89.031zm43.119 119.345v-25.549h36.374V89.031h28.564v93.796h58.941v25.549H709.477z" fill="#fff"/><path d="M86.635 84.662h36.451v130.42H86.635V84.662zm61.02 0h36.362v94.479h-36.362V84.662zm0 105.777h36.362v24.643h-36.362v-24.643zm105.11-71.17l-18.407 59.872h-37.834l39.459-94.479h32.251l40.325 94.479h-36.694l-19.1-59.872zm67.587 71.17h36.362v24.643h-36.362v-24.643zm0-105.777h36.362v94.479h-36.362V84.662zm127.758 96.614c-7.446 0-13.758-1.35-18.94-4.047-5.182-2.701-10.305-7.193-15.367-13.479v15.391h-33.86V84.662h36.362v45.371c0 8.599 1.369 14.56 4.11 17.882 2.738 3.32 6.312 4.981 10.721 4.981 3.989 0 7.087-1.231 9.291-3.691 2.203-2.462 3.305-6.658 3.305-12.589V84.662h36.541v60.05c0 12.455-2.844 21.663-8.532 27.623-5.688 5.961-13.566 8.941-23.631 8.941m112.973-62.941c-3.068-3.411-6.866-5.115-11.392-5.115-4.765 0-8.607 1.645-11.525 4.937-2.918 3.291-4.377 8.347-4.377 15.168 0 7.769 1.385 13.329 4.154 16.681 2.77 3.349 6.478 5.026 11.123 5.026 4.646 0 8.577-1.824 11.793-5.471 3.216-3.648 4.825-8.912 4.825-15.791 0-6.881-1.535-12.026-4.601-15.435m40.963-28.424v89.23h-34.039v-13.967c-4.17 5.752-8.653 9.875-13.446 12.365-4.795 2.491-10.886 3.737-18.271 3.737-11.556 0-20.905-3.856-28.053-11.565-7.147-7.711-10.72-18.92-10.72-33.628 0-12.87 2.769-23.22 8.308-31.048 7.802-11.031 18.047-16.547 30.734-16.547 6.491 0 12.537 1.482 18.135 4.448 3.575 1.897 7.148 4.952 10.722 9.164V87.776c0-6.939-1.296-11.801-3.887-14.589-2.591-2.788-6.508-4.182-11.748-4.182-4.052 0-7.416.92-10.095 2.758-1.847 1.246-3.217 3.5-4.111 6.761l-35.289 4.003c-.12-2.015-.179-3.617-.179-4.803 0-9.549 3.558-17.17 10.676-22.864 7.117-5.694 20.205-8.541 39.266-8.541 8.338 0 15.738.743 22.201 2.225 6.462 1.482 11.793 3.885 15.992 7.206 4.199 3.321 7.564 7.666 10.096 13.032a39.272 39.272 0 013.797 16.948l-.089 4.181z" fill="#231f20" fill-rule="evenodd"/></g></symbol><symbol viewBox="0 0 1199.849 1199.849" id="logo" xmlns="http://www.w3.org/2000/svg"><defs><clipPath id="ea" clipPathUnits="userSpaceOnUse"><path d="M0 899.887h899.887V0H0z"/></clipPath></defs><g clip-path="url(#ea)" transform="matrix(1.33333 0 0 -1.33333 0 1199.85)"><path d="M829.896 899.887H69.991C31.336 899.887 0 868.551 0 829.897V69.99C0 31.336 31.336.001 69.991.001h759.905c38.655 0 69.991 31.335 69.991 69.99v759.905c0 38.655-31.336 69.991-69.991 69.991" fill="#fff"/><path d="M322.428 90.037h-23.61v98.35h23.61zm100.92 77.255h-35.581V90.037h-23.336v77.255h-30.198v21.095h78.137c-15.331 21.404-40.435 35.356-68.804 35.356-46.682 0-84.526-37.778-84.526-84.379 0-46.601 37.844-84.379 84.526-84.379 46.684 0 84.528 37.778 84.528 84.379a84.13 84.13 0 01-4.746 27.928" fill="#f78d15"/><path d="M738.71 332.213h63.555v27.028H738.71v21.062h68.513v28.294h-109.44v-132.52h111.423v30.01H738.71zM569.563 318.97c-2.044-4.733-4.87-8.045-8.475-9.944-3.607-1.898-9.677-2.847-18.21-2.847h-10.007v72.406h10.188c10.577 0 18.15-2.591 22.716-7.773 4.568-5.184 6.852-14.795 6.852-28.836 0-10.608-1.022-18.277-3.064-23.006m30.38 70.734c-4.81 6.086-10.895 10.757-18.256 14.012-7.363 3.253-17.024 4.88-28.983 4.88h-60.67v-132.52h60.67c7.272 0 15.385 1.206 24.341 3.617 6.55 1.748 12.68 5.257 18.39 10.53 5.71 5.274 10.171 11.812 13.387 19.617 3.214 7.804 4.823 18.787 4.823 32.949 0 9.04-1.082 17.596-3.247 25.672-2.162 8.074-5.649 15.156-10.456 21.243m-434.37-78.553c-3.998-4.401-9.904-6.6-17.716-6.6-8.054 0-14.303 2.724-18.75 8.172-4.448 5.446-6.67 15.514-6.67 30.202 0 11.855 1.861 20.553 5.588 26.09 4.927 7.465 12.02 11.198 21.275 11.198 4.086 0 7.783-.845 11.088-2.531 3.305-1.688 6.1-4.1 8.385-7.233 1.381-1.868 2.704-4.821 3.966-8.858l36.06 8.045c-4.629 13.98-11.706 24.347-21.23 31.097-9.526 6.748-22.614 10.124-39.26 10.124-21.275 0-37.727-5.887-49.357-17.662-11.629-11.773-17.444-28.621-17.444-50.542 0-16.442 3.305-29.931 9.917-40.471 6.61-10.54 14.47-17.902 23.574-22.086 9.105-4.186 20.838-6.28 35.203-6.28 11.84 0 21.59 1.718 29.253 5.154 7.663 3.434 14.077 8.527 19.247 15.277 5.168 6.748 8.954 15.155 11.358 25.22l-35.788 10.847c-1.804-8.377-4.704-14.765-8.7-19.163M777.417 611.75v-73.317l-49.762 73.317h-38.133V479.23h38.404v72.763l49.491-72.762h38.494V611.75zm-210.625 0h-40.928V479.23h40.928zm-221.985-44.706l-26.626 44.706H272.82l51.475-77.016V479.23h40.928v55.503l51.385 77.016h-45.119zM118.65 479.23h40.837v99.796h41.65v32.723H77v-32.723h41.65zm582.762 219.05c4.236-4.937 8.91-8.746 14.018-11.426 5.107-2.681 11.464-4.47 19.066-5.375 7.603-.903 14.618-1.355 21.05-1.355 11.117 0 20.643 1.476 28.577 4.427 5.71 2.107 11.163 5.765 16.362 10.974 5.198 5.209 9.015 11.292 11.45 18.249 2.433 6.954 3.65 14.348 3.65 22.176v78.953h-40.747V734.07c0-7.346-1.999-13.021-5.995-17.025-3.997-4.004-9.51-6.006-16.543-6.006-7.092 0-12.636 2.032-16.632 6.097-3.997 4.062-5.995 9.708-5.995 16.934v80.833h-40.747V735.95c0-6.505 1.262-13.971 3.786-22.403 1.562-5.24 4.462-10.33 8.7-15.267m-168.889 34.635l14.435 47.638 14.588-47.638zm-7.336 81.988l-49.67-132.52h41.694l6.442 21.876h46.364l6.611-21.875h42.765l-49.66 132.519zM400.225 712.395h-70.497v26.125h63.555v27.027h-63.555v21.062h68.514v28.294h-109.44v-132.52h111.423zm-272.65-1.537v26.847h20.733c7.151 0 12.154-1.19 15.01-3.57 2.853-2.381 4.281-5.53 4.281-9.446 0-4.22-1.442-7.58-4.327-10.08-2.885-2.501-7.843-3.751-14.874-3.751zm0 77.197h18.028c6.19 0 10.532-1.083 13.027-3.253 2.493-2.17 3.741-5.184 3.741-9.04 0-4.157-1.248-7.337-3.74-9.537-2.496-2.2-6.929-3.3-13.298-3.3h-17.759zm47.597-103.863c6.911.904 12.08 2.35 15.505 4.339 5.53 3.193 9.886 7.532 13.072 13.017 3.185 5.482 4.778 11.66 4.778 18.53 0 8.437-2.24 15.443-6.716 21.018-4.478 5.573-11.464 9.505-20.96 11.796 6.25 2.17 10.998 5.12 14.244 8.859 4.868 5.604 7.302 12.324 7.302 20.158 0 9.34-3.412 17.175-10.232 23.503-6.822 6.327-16.603 9.49-29.343 9.49H86.376V682.385h70.496c3.004 0 9.105.6 18.3 1.808" fill="#160a06" fill-rule="evenodd"/></g></symbol><symbol viewBox="0 0 24 24" id="twitter" xmlns="http://www.w3.org/2000/svg"><path d="M5 3h14a2 2 0 012 2v14a2 2 0 01-2 2H5a2 2 0 01-2-2V5a2 2 0 012-2m12.71 6.33c.48-.4 1.04-.88 1.29-1.41-.41.21-.9.34-1.44.41.5-.36.91-.83 1.12-1.47-.52.28-1.05.52-1.71.64-1.55-1.87-5.26-.35-4.6 2.45-2.61-.16-4.2-1.34-5.52-2.79-.75 1.22-.1 3.07.79 3.58-.46-.03-.81-.17-1.14-.33.04 1.54.89 2.28 2.08 2.68-.36.07-.76.09-1.14.03.37 1.07 1.14 1.74 2.46 1.88-.9.76-2.56 1.29-3.9 1.08 1.15.73 2.46 1.31 4.28 1.23 4.41-.2 7.36-3.36 7.43-7.98z"/></symbol></svg>