<svg xmlns="http://www.w3.org/2000/svg" viewBox="0 0 1125 375"><defs><clipPath id="a" clipPathUnits="userSpaceOnUse"><path d="M0 300h900V0H0v300z"/></clipPath></defs><g clip-path="url(#a)" transform="matrix(1.25 0 0 -1.25 0 375)"><path d="M888 300H12c-6.627 0-12-5.373-12-12V12C0 5.373 5.373 0 12 0h876c6.627 0 12 5.373 12 12v276c0 6.627-5.373 12-12 12" fill="#fff" fill-rule="evenodd"/><path d="M720.615 251.48c-56.724 0-102.708-45.936-102.708-102.601 0-56.664 45.984-102.6 102.708-102.6s102.708 45.936 102.708 102.6c0 56.665-45.984 102.6-102.708 102.6" fill="#f29400" fill-rule="evenodd"/><path d="M666.358 89.031h28.565v119.345h-28.565V89.031zm43.119 119.345v-25.549h36.374V89.031h28.564v93.796h58.941v25.549H709.477z" fill="#fff"/><path d="M86.635 84.662h36.451v130.42H86.635V84.662zm61.02 0h36.362v94.479h-36.362V84.662zm0 105.777h36.362v24.643h-36.362v-24.643zm105.11-71.17l-18.407 59.872h-37.834l39.459-94.479h32.251l40.325 94.479h-36.694l-19.1-59.872zm67.587 71.17h36.362v24.643h-36.362v-24.643zm0-105.777h36.362v94.479h-36.362V84.662zm127.758 96.614c-7.446 0-13.758-1.35-18.94-4.047-5.182-2.701-10.305-7.193-15.367-13.479v15.391h-33.86V84.662h36.362v45.371c0 8.599 1.369 14.56 4.11 17.882 2.738 3.32 6.312 4.981 10.721 4.981 3.989 0 7.087-1.231 9.291-3.691 2.203-2.462 3.305-6.658 3.305-12.589V84.662h36.541v60.05c0 12.455-2.844 21.663-8.532 27.623-5.688 5.961-13.566 8.941-23.631 8.941m112.973-62.941c-3.068-3.411-6.866-5.115-11.392-5.115-4.765 0-8.607 1.645-11.525 4.937-2.918 3.291-4.377 8.347-4.377 15.168 0 7.769 1.385 13.329 4.154 16.681 2.77 3.349 6.478 5.026 11.123 5.026 4.646 0 8.577-1.824 11.793-5.471 3.216-3.648 4.825-8.912 4.825-15.791 0-6.881-1.535-12.026-4.601-15.435m40.963-28.424v89.23h-34.039v-13.967c-4.17 5.752-8.653 9.875-13.446 12.365-4.795 2.491-10.886 3.737-18.271 3.737-11.556 0-20.905-3.856-28.053-11.565-7.147-7.711-10.72-18.92-10.72-33.628 0-12.87 2.769-23.22 8.308-31.048 7.802-11.031 18.047-16.547 30.734-16.547 6.491 0 12.537 1.482 18.135 4.448 3.575 1.897 7.148 4.952 10.722 9.164V87.776c0-6.939-1.296-11.801-3.887-14.589-2.591-2.788-6.508-4.182-11.748-4.182-4.052 0-7.416.92-10.095 2.758-1.847 1.246-3.217 3.5-4.111 6.761l-35.289 4.003c-.12-2.015-.179-3.617-.179-4.803 0-9.549 3.558-17.17 10.676-22.864 7.117-5.694 20.205-8.541 39.266-8.541 8.338 0 15.738.743 22.201 2.225 6.462 1.482 11.793 3.885 15.992 7.206 4.199 3.321 7.564 7.666 10.096 13.032a39.272 39.272 0 013.797 16.948l-.089 4.181z" fill="#231f20" fill-rule="evenodd"/></g></svg>