<?xml version="1.0" encoding="utf-8"?>
<!-- Generator: Adobe Illustrator 25.2.1, SVG Export Plug-In . SVG Version: 6.00 Build 0)  -->
<svg version="1.1" id="BiC_1_" xmlns="http://www.w3.org/2000/svg" xmlns:xlink="http://www.w3.org/1999/xlink" x="0px" y="0px"
	 viewBox="0 0 2999.62 1699.79" style="enable-background:new 0 0 2999.62 1699.79;" xml:space="preserve">
<style type="text/css">
	.st0{fill:#FFFFFF;}
	.st1{fill:#FF8707;}
	.st2{fill:#231F20;}
</style>
<g id="Background">
	<g>
		<path class="st0" d="M2855.43,0H144.19C64.56,0,0,64.55,0,144.18v1411.42c0,79.63,64.56,144.18,144.19,144.18h2711.24
			c79.64,0,144.19-64.55,144.19-144.18V144.18C2999.62,64.55,2935.07,0,2855.43,0z"/>
	</g>
</g>
<g id="IN">
	<g>
		<path class="st1" d="M552.89,755.92c-223.22,0-404.18,180.95-404.18,404.15s180.96,404.15,404.18,404.15
			c223.23,0,404.18-180.95,404.18-404.15S776.12,755.92,552.89,755.92z M383.63,1396.28H270.76V925.33h112.87V1396.28z
			 M836.14,1396.83H723.51l-169.7-263v262.45H440.94V925.33h112.87l169.49,262.95V925.16h112.84V1396.83z"/>
	</g>
</g>
<g id="Beauty_Code">
	<g>
		<path class="st2" d="M606.85,446.03c22.28-7.71,39.21-18.21,50.78-31.49c17.35-19.93,26.03-43.81,26.03-71.67
			c0-33.21-12.16-61.06-36.48-83.56c-24.32-22.5-59.19-33.74-104.61-33.74H270.05V696.7h251.31c10.71,0,32.46-2.14,65.24-6.43
			c24.64-3.21,43.06-8.36,55.28-15.43c19.71-11.35,35.24-26.78,46.6-46.28c11.35-19.49,17.03-41.46,17.03-65.88
			c0-29.99-7.98-54.9-23.94-74.72C665.61,468.15,640.7,454.17,606.85,446.03z M416.92,321.01h64.27c22.06,0,37.55,3.86,46.44,11.57
			c8.89,7.71,13.34,18.43,13.34,32.14c0,14.78-4.45,26.09-13.34,33.9c-8.89,7.82-24.7,11.73-47.4,11.73h-63.31V321.01z
			 M544.18,582.13c-10.28,8.89-27.96,13.34-53.03,13.34h-74.24v-95.45h73.92c25.49,0,43.33,4.23,53.51,12.69
			c10.17,8.47,15.27,19.66,15.27,33.58C559.61,561.3,554.47,573.24,544.18,582.13z M1144.51,608.32l-128.87-11.89
			c-8.14,10.28-15.75,17.46-22.82,21.53c-11.57,6.43-23.78,9.64-36.64,9.64c-20.36,0-36.85-7.39-49.49-22.17
			c-9-10.28-14.68-25.92-17.03-46.92h262.24v-14.78c0-44.99-7.39-81.52-22.17-109.59c-14.78-28.06-36.32-49.49-64.6-64.27
			c-28.28-14.78-66.85-22.17-115.69-22.17c-60.21,0-107.39,16.5-141.56,49.49c-34.18,33-51.26,76.17-51.26,129.51
			c0,37.5,8.52,70.11,25.55,97.86c17.03,27.75,38.51,48,64.44,60.74c25.92,12.74,61.49,19.12,106.7,19.12
			c52.06,0,92.02-7.45,119.87-22.34C1101.01,667.19,1124.79,642.6,1144.51,608.32z M905.08,449.88
			c12.42-16.5,29.03-24.75,49.81-24.75c18,0,32.51,5.46,43.55,16.39c11.03,10.93,17.84,29.03,20.41,54.31H889.98
			C892.12,475.49,897.16,460.17,905.08,449.88z M1302.94,505.16c-40.92,8.14-68.99,20.57-84.2,37.28
			c-15.21,16.71-22.82,38.03-22.82,63.95c0,27.64,10.55,50.89,31.66,69.74c21.1,18.86,52.01,28.28,92.72,28.28
			c30.64,0,57.53-4.72,80.66-14.14c16.92-7.07,33.95-18.85,51.1-35.35c1.5,9.86,3,17.09,4.5,21.69c1.5,4.61,4.71,11.3,9.64,20.09
			h122.76c-6.86-14.14-11.3-25.76-13.34-34.87c-2.04-9.1-3.05-21.69-3.05-37.76V473.34c0-16.07-3.21-32.94-9.64-50.62
			c-6.43-17.68-15.22-31.33-26.35-40.98c-15.86-13.92-35.67-23.08-59.45-27.48c-23.78-4.39-55.28-6.59-94.48-6.59
			c-24.42,0-47.14,1.82-68.13,5.46c-21,3.65-37.5,8.79-49.49,15.43c-16.71,9.21-29.52,20.09-38.4,32.62
			c-8.89,12.53-15.7,29.73-20.41,51.58l125.01,13.18c5.14-14.78,11.89-24.85,20.25-30.21c10.71-6.85,26.78-10.28,48.21-10.28
			c16.71,0,28.39,3.21,35.03,9.64c6.64,6.43,9.96,17.68,9.96,33.74c-16.28,6.43-31.71,11.62-46.28,15.59
			C1383.82,488.4,1352,495.31,1302.94,505.16z M1444.67,555.62c0,16.28-2.63,29.52-7.87,39.69c-5.25,10.18-14.14,18.8-26.67,25.87
			c-12.53,7.07-26.09,10.61-40.65,10.61c-13.93,0-24.48-3.26-31.66-9.8c-7.18-6.53-10.77-14.94-10.77-25.23
			c0-9,3.64-17.03,10.93-24.1c7.07-6.85,23.89-13.82,50.46-20.89c19.49-4.93,38.24-10.61,56.24-17.03V555.62z M1765.08,704.41
			c27,0,49.76-4.82,68.29-14.46c18.53-9.64,36.9-25.82,55.12-48.53v55.28h122.12V355.4h-130.8v164.22c0,31.07-4.98,52.6-14.94,64.6
			c-9.96,12-22.77,18-38.4,18c-14.36,0-25.5-4.5-33.42-13.5c-7.93-9-11.89-24.21-11.89-45.64V355.4h-131.44v217.25
			c0,44.78,10.23,77.93,30.69,99.47C1700.85,693.65,1729.09,704.41,1765.08,704.41z M2116.66,571.21c0,38.09,3.7,65.64,11.09,82.65
			c7.39,17.01,18.8,29.69,34.23,38.03c15.43,8.35,39.42,12.52,71.99,12.52c28.06,0,58.27-3.54,90.63-10.61l-9.64-90.29
			c-17.35,5.56-30.85,8.34-40.49,8.34c-10.72,0-18.21-3.64-22.5-10.91c-2.79-4.7-4.18-14.32-4.18-28.86V451.17h71.99V355.4h-71.99
			V225.57l-131.12,67.17v62.67h-48.21v95.77h48.21V571.21z M2564.57,804.33c16.06-14.58,31.8-42.67,47.22-84.26L2747.2,355.4
			h-128.89l-65.38,227.21l-70.4-227.21h-138.01l143.22,341.24c-6.64,18.23-14.72,30.89-24.24,37.97
			c-9.53,7.08-21.99,10.62-37.41,10.62c-23.12,0-44.1-3-62.93-9l10.27,91.27c39.4,5.14,68.53,7.71,87.38,7.71
			C2507.28,835.21,2541.86,824.92,2564.57,804.33z M1315.87,1271.58c-14.25,15.64-35.3,23.46-63.15,23.46
			c-28.71,0-50.99-9.68-66.85-29.05c-15.86-19.36-23.78-55.16-23.78-107.37c0-42.15,6.64-73.07,19.93-92.76
			c17.57-26.53,42.85-39.81,75.84-39.81c14.57,0,27.74,3,39.53,9c11.78,6,21.74,14.57,29.89,25.71c4.93,6.64,9.64,17.14,14.14,31.49
			l128.55-28.6c-16.5-49.7-41.73-86.55-75.68-110.55c-33.96-23.99-80.61-35.99-139.96-35.99c-75.84,0-134.49,20.93-175.95,62.79
			c-41.46,41.86-62.19,101.75-62.19,179.69c0,58.45,11.78,106.41,35.35,143.88c23.57,37.47,51.58,63.64,84.04,78.52
			s74.29,22.32,125.5,22.32c42.21,0,76.97-6.11,104.29-18.32s50.18-30.31,68.61-54.31c18.42-23.99,31.92-53.88,40.49-89.66
			l-127.59-38.56C1340.45,1233.23,1330.11,1255.94,1315.87,1271.58z M1715.49,1047.26c-59.78,0-107.23,16.87-142.37,50.62
			c-35.14,33.74-52.71,76.65-52.71,128.71c0,55.92,20.78,101.13,62.35,135.62c33.85,27.85,78.2,41.78,133.05,41.78
			c61.49,0,109.64-16.76,144.46-50.29c34.81-33.53,52.22-76.54,52.22-129.03c0-46.7-14.03-86.02-42.1-117.94
			C1835.47,1067.08,1783.84,1047.26,1715.49,1047.26z M1762.9,1294.08c-12.11,14.36-27.59,21.53-46.44,21.53
			c-18.64,0-34.12-7.28-46.44-21.85c-12.32-14.57-18.48-37.06-18.48-67.49c0-29.99,6.21-52.33,18.64-67.01
			c12.42-14.67,28.17-22.01,47.24-22.01c18,0,33.1,7.23,45.31,21.69c12.21,14.46,18.32,36.48,18.32,66.04
			C1781.05,1256.69,1775,1279.73,1762.9,1294.08z M2202.7,1088.4c-12.85-13.71-27.59-23.99-44.19-30.85
			c-16.61-6.85-35.09-10.28-55.44-10.28c-41.78,0-76.22,15-103.32,44.99c-27.11,30-40.65,73.27-40.65,129.83
			c0,50.57,12.26,93.52,36.8,128.87c24.53,35.35,60.04,53.03,106.54,53.03c23.14,0,44.13-4.93,62.99-14.78
			c14.14-7.5,29.78-21.96,46.92-43.39v50.46h122.44V925.14H2202.7V1088.4z M2186.95,1288.61c-11.14,13.07-25.07,19.6-41.78,19.6
			c-15.64,0-28.76-6.48-39.37-19.44c-10.61-12.96-15.91-33.37-15.91-61.22c0-29.78,5.14-50.99,15.43-63.63
			c10.28-12.64,23.03-18.96,38.24-18.96c17.35,0,31.71,6.59,43.06,19.76c11.35,13.18,17.03,33.16,17.03,59.94
			C2203.66,1254.23,2198.09,1275.55,2186.95,1288.61z M2793.38,1243.3c0-44.99-7.39-81.52-22.17-109.59
			c-14.78-28.06-36.32-49.49-64.6-64.27c-28.28-14.78-66.85-22.17-115.69-22.17c-60.21,0-107.39,16.5-141.56,49.49
			c-34.18,33-51.26,76.17-51.26,129.51c0,37.5,8.52,70.11,25.55,97.86c17.03,27.75,38.51,48,64.44,60.74
			c25.92,12.74,61.49,19.12,106.7,19.12c52.06,0,92.02-7.45,119.87-22.34c27.85-14.89,51.63-39.47,71.34-73.76l-128.87-11.89
			c-8.15,10.28-15.75,17.46-22.82,21.53c-11.57,6.43-23.78,9.64-36.64,9.64c-20.36,0-36.85-7.39-49.49-22.17
			c-9-10.28-14.68-25.92-17.03-46.92h262.24V1243.3z M2531.46,1195.42c2.14-20.35,7.18-35.67,15.1-45.96
			c12.42-16.5,29.03-24.75,49.81-24.75c18,0,32.51,5.46,43.55,16.39c11.03,10.93,17.84,29.03,20.41,54.31H2531.46z"/>
	</g>
</g>
</svg>
